G04 EAGLE Gerber X2 export*
%TF.Part,Single*%
%TF.FileFunction,Profile,NP*%
%TF.FilePolarity,Positive*%
%TF.GenerationSoftware,Autodesk,EAGLE,9.6.2*%
%TF.CreationDate,2023-04-02T13:57:21Z*%
G75*
%MOIN*%
%FSLAX36Y36*%
%LPD*%
%INBoard Outline*%
%AMOC8*
5,1,8,0,0,1.08239X$1,22.5*%
G01*
%ADD10C,0.000000*%
%ADD11C,0.010000*%


D10*
X7874Y196850D02*
X1783465Y188976D01*
X1755906Y2582677D01*
X0Y2574803D01*
X7874Y196850D01*
X1525590Y740157D02*
X1525608Y741655D01*
X1525664Y743151D01*
X1525755Y744646D01*
X1525884Y746138D01*
X1526049Y747627D01*
X1526250Y749111D01*
X1526488Y750590D01*
X1526763Y752062D01*
X1527073Y753527D01*
X1527419Y754985D01*
X1527801Y756433D01*
X1528218Y757871D01*
X1528670Y759299D01*
X1529157Y760715D01*
X1529679Y762119D01*
X1530235Y763510D01*
X1530825Y764886D01*
X1531449Y766248D01*
X1532106Y767594D01*
X1532796Y768924D01*
X1533518Y770236D01*
X1534272Y771530D01*
X1535058Y772805D01*
X1535874Y774060D01*
X1536722Y775295D01*
X1537599Y776509D01*
X1538506Y777701D01*
X1539442Y778870D01*
X1540406Y780016D01*
X1541398Y781138D01*
X1542418Y782236D01*
X1543464Y783307D01*
X1544535Y784353D01*
X1545633Y785373D01*
X1546755Y786365D01*
X1547901Y787329D01*
X1549070Y788265D01*
X1550262Y789172D01*
X1551476Y790049D01*
X1552711Y790897D01*
X1553966Y791713D01*
X1555241Y792499D01*
X1556535Y793253D01*
X1557847Y793975D01*
X1559177Y794665D01*
X1560523Y795322D01*
X1561885Y795946D01*
X1563261Y796536D01*
X1564652Y797092D01*
X1566056Y797614D01*
X1567472Y798101D01*
X1568900Y798553D01*
X1570338Y798970D01*
X1571786Y799352D01*
X1573244Y799698D01*
X1574709Y800008D01*
X1576181Y800283D01*
X1577660Y800521D01*
X1579144Y800722D01*
X1580633Y800887D01*
X1582125Y801016D01*
X1583620Y801107D01*
X1585116Y801163D01*
X1586614Y801181D01*
X1588112Y801163D01*
X1589608Y801107D01*
X1591103Y801016D01*
X1592595Y800887D01*
X1594084Y800722D01*
X1595568Y800521D01*
X1597047Y800283D01*
X1598519Y800008D01*
X1599984Y799698D01*
X1601442Y799352D01*
X1602890Y798970D01*
X1604328Y798553D01*
X1605756Y798101D01*
X1607172Y797614D01*
X1608576Y797092D01*
X1609967Y796536D01*
X1611343Y795946D01*
X1612705Y795322D01*
X1614051Y794665D01*
X1615381Y793975D01*
X1616693Y793253D01*
X1617987Y792499D01*
X1619262Y791713D01*
X1620517Y790897D01*
X1621752Y790049D01*
X1622966Y789172D01*
X1624158Y788265D01*
X1625327Y787329D01*
X1626473Y786365D01*
X1627595Y785373D01*
X1628693Y784353D01*
X1629764Y783307D01*
X1630810Y782236D01*
X1631830Y781138D01*
X1632822Y780016D01*
X1633786Y778870D01*
X1634722Y777701D01*
X1635629Y776509D01*
X1636506Y775295D01*
X1637354Y774060D01*
X1638170Y772805D01*
X1638956Y771530D01*
X1639710Y770236D01*
X1640432Y768924D01*
X1641122Y767594D01*
X1641779Y766248D01*
X1642403Y764886D01*
X1642993Y763510D01*
X1643549Y762119D01*
X1644071Y760715D01*
X1644558Y759299D01*
X1645010Y757871D01*
X1645427Y756433D01*
X1645809Y754985D01*
X1646155Y753527D01*
X1646465Y752062D01*
X1646740Y750590D01*
X1646978Y749111D01*
X1647179Y747627D01*
X1647344Y746138D01*
X1647473Y744646D01*
X1647564Y743151D01*
X1647620Y741655D01*
X1647638Y740157D01*
X1647620Y738659D01*
X1647564Y737163D01*
X1647473Y735668D01*
X1647344Y734176D01*
X1647179Y732687D01*
X1646978Y731203D01*
X1646740Y729724D01*
X1646465Y728252D01*
X1646155Y726787D01*
X1645809Y725329D01*
X1645427Y723881D01*
X1645010Y722443D01*
X1644558Y721015D01*
X1644071Y719599D01*
X1643549Y718195D01*
X1642993Y716804D01*
X1642403Y715428D01*
X1641779Y714066D01*
X1641122Y712720D01*
X1640432Y711390D01*
X1639710Y710078D01*
X1638956Y708784D01*
X1638170Y707509D01*
X1637354Y706254D01*
X1636506Y705019D01*
X1635629Y703805D01*
X1634722Y702613D01*
X1633786Y701444D01*
X1632822Y700298D01*
X1631830Y699176D01*
X1630810Y698078D01*
X1629764Y697007D01*
X1628693Y695961D01*
X1627595Y694941D01*
X1626473Y693949D01*
X1625327Y692985D01*
X1624158Y692049D01*
X1622966Y691142D01*
X1621752Y690265D01*
X1620517Y689417D01*
X1619262Y688601D01*
X1617987Y687815D01*
X1616693Y687061D01*
X1615381Y686339D01*
X1614051Y685649D01*
X1612705Y684992D01*
X1611343Y684368D01*
X1609967Y683778D01*
X1608576Y683222D01*
X1607172Y682700D01*
X1605756Y682213D01*
X1604328Y681761D01*
X1602890Y681344D01*
X1601442Y680962D01*
X1599984Y680616D01*
X1598519Y680306D01*
X1597047Y680031D01*
X1595568Y679793D01*
X1594084Y679592D01*
X1592595Y679427D01*
X1591103Y679298D01*
X1589608Y679207D01*
X1588112Y679151D01*
X1586614Y679133D01*
X1585116Y679151D01*
X1583620Y679207D01*
X1582125Y679298D01*
X1580633Y679427D01*
X1579144Y679592D01*
X1577660Y679793D01*
X1576181Y680031D01*
X1574709Y680306D01*
X1573244Y680616D01*
X1571786Y680962D01*
X1570338Y681344D01*
X1568900Y681761D01*
X1567472Y682213D01*
X1566056Y682700D01*
X1564652Y683222D01*
X1563261Y683778D01*
X1561885Y684368D01*
X1560523Y684992D01*
X1559177Y685649D01*
X1557847Y686339D01*
X1556535Y687061D01*
X1555241Y687815D01*
X1553966Y688601D01*
X1552711Y689417D01*
X1551476Y690265D01*
X1550262Y691142D01*
X1549070Y692049D01*
X1547901Y692985D01*
X1546755Y693949D01*
X1545633Y694941D01*
X1544535Y695961D01*
X1543464Y697007D01*
X1542418Y698078D01*
X1541398Y699176D01*
X1540406Y700298D01*
X1539442Y701444D01*
X1538506Y702613D01*
X1537599Y703805D01*
X1536722Y705019D01*
X1535874Y706254D01*
X1535058Y707509D01*
X1534272Y708784D01*
X1533518Y710078D01*
X1532796Y711390D01*
X1532106Y712720D01*
X1531449Y714066D01*
X1530825Y715428D01*
X1530235Y716804D01*
X1529679Y718195D01*
X1529157Y719599D01*
X1528670Y721015D01*
X1528218Y722443D01*
X1527801Y723881D01*
X1527419Y725329D01*
X1527073Y726787D01*
X1526763Y728252D01*
X1526488Y729724D01*
X1526250Y731203D01*
X1526049Y732687D01*
X1525884Y734176D01*
X1525755Y735668D01*
X1525664Y737163D01*
X1525608Y738659D01*
X1525590Y740157D01*
X112204Y862205D02*
X112222Y863703D01*
X112278Y865199D01*
X112369Y866694D01*
X112498Y868186D01*
X112663Y869675D01*
X112864Y871159D01*
X113102Y872638D01*
X113377Y874110D01*
X113687Y875575D01*
X114033Y877033D01*
X114415Y878481D01*
X114832Y879919D01*
X115284Y881347D01*
X115771Y882763D01*
X116293Y884167D01*
X116849Y885558D01*
X117439Y886934D01*
X118063Y888296D01*
X118720Y889642D01*
X119410Y890972D01*
X120132Y892284D01*
X120886Y893578D01*
X121672Y894853D01*
X122488Y896108D01*
X123336Y897343D01*
X124213Y898557D01*
X125120Y899749D01*
X126056Y900918D01*
X127020Y902064D01*
X128012Y903186D01*
X129032Y904284D01*
X130078Y905355D01*
X131149Y906401D01*
X132247Y907421D01*
X133369Y908413D01*
X134515Y909377D01*
X135684Y910313D01*
X136876Y911220D01*
X138090Y912097D01*
X139325Y912945D01*
X140580Y913761D01*
X141855Y914547D01*
X143149Y915301D01*
X144461Y916023D01*
X145791Y916713D01*
X147137Y917370D01*
X148499Y917994D01*
X149875Y918584D01*
X151266Y919140D01*
X152670Y919662D01*
X154086Y920149D01*
X155514Y920601D01*
X156952Y921018D01*
X158400Y921400D01*
X159858Y921746D01*
X161323Y922056D01*
X162795Y922331D01*
X164274Y922569D01*
X165758Y922770D01*
X167247Y922935D01*
X168739Y923064D01*
X170234Y923155D01*
X171730Y923211D01*
X173228Y923229D01*
X174726Y923211D01*
X176222Y923155D01*
X177717Y923064D01*
X179209Y922935D01*
X180698Y922770D01*
X182182Y922569D01*
X183661Y922331D01*
X185133Y922056D01*
X186598Y921746D01*
X188056Y921400D01*
X189504Y921018D01*
X190942Y920601D01*
X192370Y920149D01*
X193786Y919662D01*
X195190Y919140D01*
X196581Y918584D01*
X197957Y917994D01*
X199319Y917370D01*
X200665Y916713D01*
X201995Y916023D01*
X203307Y915301D01*
X204601Y914547D01*
X205876Y913761D01*
X207131Y912945D01*
X208366Y912097D01*
X209580Y911220D01*
X210772Y910313D01*
X211941Y909377D01*
X213087Y908413D01*
X214209Y907421D01*
X215307Y906401D01*
X216378Y905355D01*
X217424Y904284D01*
X218444Y903186D01*
X219436Y902064D01*
X220400Y900918D01*
X221336Y899749D01*
X222243Y898557D01*
X223120Y897343D01*
X223968Y896108D01*
X224784Y894853D01*
X225570Y893578D01*
X226324Y892284D01*
X227046Y890972D01*
X227736Y889642D01*
X228393Y888296D01*
X229017Y886934D01*
X229607Y885558D01*
X230163Y884167D01*
X230685Y882763D01*
X231172Y881347D01*
X231624Y879919D01*
X232041Y878481D01*
X232423Y877033D01*
X232769Y875575D01*
X233079Y874110D01*
X233354Y872638D01*
X233592Y871159D01*
X233793Y869675D01*
X233958Y868186D01*
X234087Y866694D01*
X234178Y865199D01*
X234234Y863703D01*
X234252Y862205D01*
X234234Y860707D01*
X234178Y859211D01*
X234087Y857716D01*
X233958Y856224D01*
X233793Y854735D01*
X233592Y853251D01*
X233354Y851772D01*
X233079Y850300D01*
X232769Y848835D01*
X232423Y847377D01*
X232041Y845929D01*
X231624Y844491D01*
X231172Y843063D01*
X230685Y841647D01*
X230163Y840243D01*
X229607Y838852D01*
X229017Y837476D01*
X228393Y836114D01*
X227736Y834768D01*
X227046Y833438D01*
X226324Y832126D01*
X225570Y830832D01*
X224784Y829557D01*
X223968Y828302D01*
X223120Y827067D01*
X222243Y825853D01*
X221336Y824661D01*
X220400Y823492D01*
X219436Y822346D01*
X218444Y821224D01*
X217424Y820126D01*
X216378Y819055D01*
X215307Y818009D01*
X214209Y816989D01*
X213087Y815997D01*
X211941Y815033D01*
X210772Y814097D01*
X209580Y813190D01*
X208366Y812313D01*
X207131Y811465D01*
X205876Y810649D01*
X204601Y809863D01*
X203307Y809109D01*
X201995Y808387D01*
X200665Y807697D01*
X199319Y807040D01*
X197957Y806416D01*
X196581Y805826D01*
X195190Y805270D01*
X193786Y804748D01*
X192370Y804261D01*
X190942Y803809D01*
X189504Y803392D01*
X188056Y803010D01*
X186598Y802664D01*
X185133Y802354D01*
X183661Y802079D01*
X182182Y801841D01*
X180698Y801640D01*
X179209Y801475D01*
X177717Y801346D01*
X176222Y801255D01*
X174726Y801199D01*
X173228Y801181D01*
X171730Y801199D01*
X170234Y801255D01*
X168739Y801346D01*
X167247Y801475D01*
X165758Y801640D01*
X164274Y801841D01*
X162795Y802079D01*
X161323Y802354D01*
X159858Y802664D01*
X158400Y803010D01*
X156952Y803392D01*
X155514Y803809D01*
X154086Y804261D01*
X152670Y804748D01*
X151266Y805270D01*
X149875Y805826D01*
X148499Y806416D01*
X147137Y807040D01*
X145791Y807697D01*
X144461Y808387D01*
X143149Y809109D01*
X141855Y809863D01*
X140580Y810649D01*
X139325Y811465D01*
X138090Y812313D01*
X136876Y813190D01*
X135684Y814097D01*
X134515Y815033D01*
X133369Y815997D01*
X132247Y816989D01*
X131149Y818009D01*
X130078Y819055D01*
X129032Y820126D01*
X128012Y821224D01*
X127020Y822346D01*
X126056Y823492D01*
X125120Y824661D01*
X124213Y825853D01*
X123336Y827067D01*
X122488Y828302D01*
X121672Y829557D01*
X120886Y830832D01*
X120132Y832126D01*
X119410Y833438D01*
X118720Y834768D01*
X118063Y836114D01*
X117439Y837476D01*
X116849Y838852D01*
X116293Y840243D01*
X115771Y841647D01*
X115284Y843063D01*
X114832Y844491D01*
X114415Y845929D01*
X114033Y847377D01*
X113687Y848835D01*
X113377Y850300D01*
X113102Y851772D01*
X112864Y853251D01*
X112663Y854735D01*
X112498Y856224D01*
X112369Y857716D01*
X112278Y859211D01*
X112222Y860707D01*
X112204Y862205D01*
X1533464Y1988189D02*
X1533482Y1989687D01*
X1533538Y1991183D01*
X1533629Y1992678D01*
X1533758Y1994170D01*
X1533923Y1995659D01*
X1534124Y1997143D01*
X1534362Y1998622D01*
X1534637Y2000094D01*
X1534947Y2001559D01*
X1535293Y2003017D01*
X1535675Y2004465D01*
X1536092Y2005903D01*
X1536544Y2007331D01*
X1537031Y2008747D01*
X1537553Y2010151D01*
X1538109Y2011542D01*
X1538699Y2012918D01*
X1539323Y2014280D01*
X1539980Y2015626D01*
X1540670Y2016956D01*
X1541392Y2018268D01*
X1542146Y2019562D01*
X1542932Y2020837D01*
X1543748Y2022092D01*
X1544596Y2023327D01*
X1545473Y2024541D01*
X1546380Y2025733D01*
X1547316Y2026902D01*
X1548280Y2028048D01*
X1549272Y2029170D01*
X1550292Y2030268D01*
X1551338Y2031339D01*
X1552409Y2032385D01*
X1553507Y2033405D01*
X1554629Y2034397D01*
X1555775Y2035361D01*
X1556944Y2036297D01*
X1558136Y2037204D01*
X1559350Y2038081D01*
X1560585Y2038929D01*
X1561840Y2039745D01*
X1563115Y2040531D01*
X1564409Y2041285D01*
X1565721Y2042007D01*
X1567051Y2042697D01*
X1568397Y2043354D01*
X1569759Y2043978D01*
X1571135Y2044568D01*
X1572526Y2045124D01*
X1573930Y2045646D01*
X1575346Y2046133D01*
X1576774Y2046585D01*
X1578212Y2047002D01*
X1579660Y2047384D01*
X1581118Y2047730D01*
X1582583Y2048040D01*
X1584055Y2048315D01*
X1585534Y2048553D01*
X1587018Y2048754D01*
X1588507Y2048919D01*
X1589999Y2049048D01*
X1591494Y2049139D01*
X1592990Y2049195D01*
X1594488Y2049213D01*
X1595986Y2049195D01*
X1597482Y2049139D01*
X1598977Y2049048D01*
X1600469Y2048919D01*
X1601958Y2048754D01*
X1603442Y2048553D01*
X1604921Y2048315D01*
X1606393Y2048040D01*
X1607858Y2047730D01*
X1609316Y2047384D01*
X1610764Y2047002D01*
X1612202Y2046585D01*
X1613630Y2046133D01*
X1615046Y2045646D01*
X1616450Y2045124D01*
X1617841Y2044568D01*
X1619217Y2043978D01*
X1620579Y2043354D01*
X1621925Y2042697D01*
X1623255Y2042007D01*
X1624567Y2041285D01*
X1625861Y2040531D01*
X1627136Y2039745D01*
X1628391Y2038929D01*
X1629626Y2038081D01*
X1630840Y2037204D01*
X1632032Y2036297D01*
X1633201Y2035361D01*
X1634347Y2034397D01*
X1635469Y2033405D01*
X1636567Y2032385D01*
X1637638Y2031339D01*
X1638684Y2030268D01*
X1639704Y2029170D01*
X1640696Y2028048D01*
X1641660Y2026902D01*
X1642596Y2025733D01*
X1643503Y2024541D01*
X1644380Y2023327D01*
X1645228Y2022092D01*
X1646044Y2020837D01*
X1646830Y2019562D01*
X1647584Y2018268D01*
X1648306Y2016956D01*
X1648996Y2015626D01*
X1649653Y2014280D01*
X1650277Y2012918D01*
X1650867Y2011542D01*
X1651423Y2010151D01*
X1651945Y2008747D01*
X1652432Y2007331D01*
X1652884Y2005903D01*
X1653301Y2004465D01*
X1653683Y2003017D01*
X1654029Y2001559D01*
X1654339Y2000094D01*
X1654614Y1998622D01*
X1654852Y1997143D01*
X1655053Y1995659D01*
X1655218Y1994170D01*
X1655347Y1992678D01*
X1655438Y1991183D01*
X1655494Y1989687D01*
X1655512Y1988189D01*
X1655494Y1986691D01*
X1655438Y1985195D01*
X1655347Y1983700D01*
X1655218Y1982208D01*
X1655053Y1980719D01*
X1654852Y1979235D01*
X1654614Y1977756D01*
X1654339Y1976284D01*
X1654029Y1974819D01*
X1653683Y1973361D01*
X1653301Y1971913D01*
X1652884Y1970475D01*
X1652432Y1969047D01*
X1651945Y1967631D01*
X1651423Y1966227D01*
X1650867Y1964836D01*
X1650277Y1963460D01*
X1649653Y1962098D01*
X1648996Y1960752D01*
X1648306Y1959422D01*
X1647584Y1958110D01*
X1646830Y1956816D01*
X1646044Y1955541D01*
X1645228Y1954286D01*
X1644380Y1953051D01*
X1643503Y1951837D01*
X1642596Y1950645D01*
X1641660Y1949476D01*
X1640696Y1948330D01*
X1639704Y1947208D01*
X1638684Y1946110D01*
X1637638Y1945039D01*
X1636567Y1943993D01*
X1635469Y1942973D01*
X1634347Y1941981D01*
X1633201Y1941017D01*
X1632032Y1940081D01*
X1630840Y1939174D01*
X1629626Y1938297D01*
X1628391Y1937449D01*
X1627136Y1936633D01*
X1625861Y1935847D01*
X1624567Y1935093D01*
X1623255Y1934371D01*
X1621925Y1933681D01*
X1620579Y1933024D01*
X1619217Y1932400D01*
X1617841Y1931810D01*
X1616450Y1931254D01*
X1615046Y1930732D01*
X1613630Y1930245D01*
X1612202Y1929793D01*
X1610764Y1929376D01*
X1609316Y1928994D01*
X1607858Y1928648D01*
X1606393Y1928338D01*
X1604921Y1928063D01*
X1603442Y1927825D01*
X1601958Y1927624D01*
X1600469Y1927459D01*
X1598977Y1927330D01*
X1597482Y1927239D01*
X1595986Y1927183D01*
X1594488Y1927165D01*
X1592990Y1927183D01*
X1591494Y1927239D01*
X1589999Y1927330D01*
X1588507Y1927459D01*
X1587018Y1927624D01*
X1585534Y1927825D01*
X1584055Y1928063D01*
X1582583Y1928338D01*
X1581118Y1928648D01*
X1579660Y1928994D01*
X1578212Y1929376D01*
X1576774Y1929793D01*
X1575346Y1930245D01*
X1573930Y1930732D01*
X1572526Y1931254D01*
X1571135Y1931810D01*
X1569759Y1932400D01*
X1568397Y1933024D01*
X1567051Y1933681D01*
X1565721Y1934371D01*
X1564409Y1935093D01*
X1563115Y1935847D01*
X1561840Y1936633D01*
X1560585Y1937449D01*
X1559350Y1938297D01*
X1558136Y1939174D01*
X1556944Y1940081D01*
X1555775Y1941017D01*
X1554629Y1941981D01*
X1553507Y1942973D01*
X1552409Y1943993D01*
X1551338Y1945039D01*
X1550292Y1946110D01*
X1549272Y1947208D01*
X1548280Y1948330D01*
X1547316Y1949476D01*
X1546380Y1950645D01*
X1545473Y1951837D01*
X1544596Y1953051D01*
X1543748Y1954286D01*
X1542932Y1955541D01*
X1542146Y1956816D01*
X1541392Y1958110D01*
X1540670Y1959422D01*
X1539980Y1960752D01*
X1539323Y1962098D01*
X1538699Y1963460D01*
X1538109Y1964836D01*
X1537553Y1966227D01*
X1537031Y1967631D01*
X1536544Y1969047D01*
X1536092Y1970475D01*
X1535675Y1971913D01*
X1535293Y1973361D01*
X1534947Y1974819D01*
X1534637Y1976284D01*
X1534362Y1977756D01*
X1534124Y1979235D01*
X1533923Y1980719D01*
X1533758Y1982208D01*
X1533629Y1983700D01*
X1533538Y1985195D01*
X1533482Y1986691D01*
X1533464Y1988189D01*
X116141Y1866142D02*
X116159Y1867640D01*
X116215Y1869136D01*
X116306Y1870631D01*
X116435Y1872123D01*
X116600Y1873612D01*
X116801Y1875096D01*
X117039Y1876575D01*
X117314Y1878047D01*
X117624Y1879512D01*
X117970Y1880970D01*
X118352Y1882418D01*
X118769Y1883856D01*
X119221Y1885284D01*
X119708Y1886700D01*
X120230Y1888104D01*
X120786Y1889495D01*
X121376Y1890871D01*
X122000Y1892233D01*
X122657Y1893579D01*
X123347Y1894909D01*
X124069Y1896221D01*
X124823Y1897515D01*
X125609Y1898790D01*
X126425Y1900045D01*
X127273Y1901280D01*
X128150Y1902494D01*
X129057Y1903686D01*
X129993Y1904855D01*
X130957Y1906001D01*
X131949Y1907123D01*
X132969Y1908221D01*
X134015Y1909292D01*
X135086Y1910338D01*
X136184Y1911358D01*
X137306Y1912350D01*
X138452Y1913314D01*
X139621Y1914250D01*
X140813Y1915157D01*
X142027Y1916034D01*
X143262Y1916882D01*
X144517Y1917698D01*
X145792Y1918484D01*
X147086Y1919238D01*
X148398Y1919960D01*
X149728Y1920650D01*
X151074Y1921307D01*
X152436Y1921931D01*
X153812Y1922521D01*
X155203Y1923077D01*
X156607Y1923599D01*
X158023Y1924086D01*
X159451Y1924538D01*
X160889Y1924955D01*
X162337Y1925337D01*
X163795Y1925683D01*
X165260Y1925993D01*
X166732Y1926268D01*
X168211Y1926506D01*
X169695Y1926707D01*
X171184Y1926872D01*
X172676Y1927001D01*
X174171Y1927092D01*
X175667Y1927148D01*
X177165Y1927166D01*
X178663Y1927148D01*
X180159Y1927092D01*
X181654Y1927001D01*
X183146Y1926872D01*
X184635Y1926707D01*
X186119Y1926506D01*
X187598Y1926268D01*
X189070Y1925993D01*
X190535Y1925683D01*
X191993Y1925337D01*
X193441Y1924955D01*
X194879Y1924538D01*
X196307Y1924086D01*
X197723Y1923599D01*
X199127Y1923077D01*
X200518Y1922521D01*
X201894Y1921931D01*
X203256Y1921307D01*
X204602Y1920650D01*
X205932Y1919960D01*
X207244Y1919238D01*
X208538Y1918484D01*
X209813Y1917698D01*
X211068Y1916882D01*
X212303Y1916034D01*
X213517Y1915157D01*
X214709Y1914250D01*
X215878Y1913314D01*
X217024Y1912350D01*
X218146Y1911358D01*
X219244Y1910338D01*
X220315Y1909292D01*
X221361Y1908221D01*
X222381Y1907123D01*
X223373Y1906001D01*
X224337Y1904855D01*
X225273Y1903686D01*
X226180Y1902494D01*
X227057Y1901280D01*
X227905Y1900045D01*
X228721Y1898790D01*
X229507Y1897515D01*
X230261Y1896221D01*
X230983Y1894909D01*
X231673Y1893579D01*
X232330Y1892233D01*
X232954Y1890871D01*
X233544Y1889495D01*
X234100Y1888104D01*
X234622Y1886700D01*
X235109Y1885284D01*
X235561Y1883856D01*
X235978Y1882418D01*
X236360Y1880970D01*
X236706Y1879512D01*
X237016Y1878047D01*
X237291Y1876575D01*
X237529Y1875096D01*
X237730Y1873612D01*
X237895Y1872123D01*
X238024Y1870631D01*
X238115Y1869136D01*
X238171Y1867640D01*
X238189Y1866142D01*
X238171Y1864644D01*
X238115Y1863148D01*
X238024Y1861653D01*
X237895Y1860161D01*
X237730Y1858672D01*
X237529Y1857188D01*
X237291Y1855709D01*
X237016Y1854237D01*
X236706Y1852772D01*
X236360Y1851314D01*
X235978Y1849866D01*
X235561Y1848428D01*
X235109Y1847000D01*
X234622Y1845584D01*
X234100Y1844180D01*
X233544Y1842789D01*
X232954Y1841413D01*
X232330Y1840051D01*
X231673Y1838705D01*
X230983Y1837375D01*
X230261Y1836063D01*
X229507Y1834769D01*
X228721Y1833494D01*
X227905Y1832239D01*
X227057Y1831004D01*
X226180Y1829790D01*
X225273Y1828598D01*
X224337Y1827429D01*
X223373Y1826283D01*
X222381Y1825161D01*
X221361Y1824063D01*
X220315Y1822992D01*
X219244Y1821946D01*
X218146Y1820926D01*
X217024Y1819934D01*
X215878Y1818970D01*
X214709Y1818034D01*
X213517Y1817127D01*
X212303Y1816250D01*
X211068Y1815402D01*
X209813Y1814586D01*
X208538Y1813800D01*
X207244Y1813046D01*
X205932Y1812324D01*
X204602Y1811634D01*
X203256Y1810977D01*
X201894Y1810353D01*
X200518Y1809763D01*
X199127Y1809207D01*
X197723Y1808685D01*
X196307Y1808198D01*
X194879Y1807746D01*
X193441Y1807329D01*
X191993Y1806947D01*
X190535Y1806601D01*
X189070Y1806291D01*
X187598Y1806016D01*
X186119Y1805778D01*
X184635Y1805577D01*
X183146Y1805412D01*
X181654Y1805283D01*
X180159Y1805192D01*
X178663Y1805136D01*
X177165Y1805118D01*
X175667Y1805136D01*
X174171Y1805192D01*
X172676Y1805283D01*
X171184Y1805412D01*
X169695Y1805577D01*
X168211Y1805778D01*
X166732Y1806016D01*
X165260Y1806291D01*
X163795Y1806601D01*
X162337Y1806947D01*
X160889Y1807329D01*
X159451Y1807746D01*
X158023Y1808198D01*
X156607Y1808685D01*
X155203Y1809207D01*
X153812Y1809763D01*
X152436Y1810353D01*
X151074Y1810977D01*
X149728Y1811634D01*
X148398Y1812324D01*
X147086Y1813046D01*
X145792Y1813800D01*
X144517Y1814586D01*
X143262Y1815402D01*
X142027Y1816250D01*
X140813Y1817127D01*
X139621Y1818034D01*
X138452Y1818970D01*
X137306Y1819934D01*
X136184Y1820926D01*
X135086Y1821946D01*
X134015Y1822992D01*
X132969Y1824063D01*
X131949Y1825161D01*
X130957Y1826283D01*
X129993Y1827429D01*
X129057Y1828598D01*
X128150Y1829790D01*
X127273Y1831004D01*
X126425Y1832239D01*
X125609Y1833494D01*
X124823Y1834769D01*
X124069Y1836063D01*
X123347Y1837375D01*
X122657Y1838705D01*
X122000Y1840051D01*
X121376Y1841413D01*
X120786Y1842789D01*
X120230Y1844180D01*
X119708Y1845584D01*
X119221Y1847000D01*
X118769Y1848428D01*
X118352Y1849866D01*
X117970Y1851314D01*
X117624Y1852772D01*
X117314Y1854237D01*
X117039Y1855709D01*
X116801Y1857188D01*
X116600Y1858672D01*
X116435Y1860161D01*
X116306Y1861653D01*
X116215Y1863148D01*
X116159Y1864644D01*
X116141Y1866142D01*
D11*
X0Y2574803D02*
X7874Y196850D01*
X1783465Y188976D01*
X1755906Y2582677D01*
X0Y2574803D01*
X1647638Y737978D02*
X1647327Y733630D01*
X1646706Y729316D01*
X1645780Y725056D01*
X1644552Y720874D01*
X1643029Y716790D01*
X1641218Y712825D01*
X1639129Y708999D01*
X1636772Y705332D01*
X1634160Y701843D01*
X1631305Y698548D01*
X1628223Y695466D01*
X1624929Y692612D01*
X1621439Y690000D01*
X1617773Y687643D01*
X1613947Y685554D01*
X1609982Y683743D01*
X1605898Y682220D01*
X1601715Y680992D01*
X1597456Y680065D01*
X1593141Y679445D01*
X1588794Y679134D01*
X1584435Y679134D01*
X1580087Y679445D01*
X1575772Y680065D01*
X1571513Y680992D01*
X1567331Y682220D01*
X1563247Y683743D01*
X1559281Y685554D01*
X1555456Y687643D01*
X1551789Y690000D01*
X1548299Y692612D01*
X1545005Y695466D01*
X1541923Y698548D01*
X1539068Y701843D01*
X1536456Y705332D01*
X1534100Y708999D01*
X1532010Y712825D01*
X1530200Y716790D01*
X1528676Y720874D01*
X1527448Y725056D01*
X1526522Y729316D01*
X1525902Y733630D01*
X1525591Y737978D01*
X1525591Y742337D01*
X1525902Y746685D01*
X1526522Y750999D01*
X1527448Y755259D01*
X1528676Y759441D01*
X1530200Y763525D01*
X1532010Y767490D01*
X1534100Y771316D01*
X1536456Y774983D01*
X1539068Y778472D01*
X1541923Y781767D01*
X1545005Y784849D01*
X1548299Y787703D01*
X1551789Y790315D01*
X1555456Y792672D01*
X1559281Y794761D01*
X1563247Y796572D01*
X1567331Y798095D01*
X1571513Y799323D01*
X1575772Y800250D01*
X1580087Y800870D01*
X1584435Y801181D01*
X1588794Y801181D01*
X1593141Y800870D01*
X1597456Y800250D01*
X1601715Y799323D01*
X1605898Y798095D01*
X1609982Y796572D01*
X1613947Y794761D01*
X1617773Y792672D01*
X1621439Y790315D01*
X1624929Y787703D01*
X1628223Y784849D01*
X1631305Y781767D01*
X1634160Y778472D01*
X1636772Y774983D01*
X1639129Y771316D01*
X1641218Y767490D01*
X1643029Y763525D01*
X1644552Y759441D01*
X1645780Y755259D01*
X1646706Y750999D01*
X1647327Y746685D01*
X1647638Y742337D01*
X1647638Y737978D01*
X234252Y860025D02*
X233941Y855677D01*
X233321Y851363D01*
X232394Y847104D01*
X231166Y842921D01*
X229643Y838837D01*
X227832Y834872D01*
X225743Y831046D01*
X223386Y827379D01*
X220774Y823890D01*
X217920Y820596D01*
X214837Y817513D01*
X211543Y814659D01*
X208054Y812047D01*
X204387Y809690D01*
X200561Y807601D01*
X196596Y805790D01*
X192512Y804267D01*
X188329Y803039D01*
X184070Y802112D01*
X179756Y801492D01*
X175408Y801181D01*
X171049Y801181D01*
X166701Y801492D01*
X162386Y802112D01*
X158127Y803039D01*
X153945Y804267D01*
X149861Y805790D01*
X145896Y807601D01*
X142070Y809690D01*
X138403Y812047D01*
X134914Y814659D01*
X131619Y817513D01*
X128537Y820596D01*
X125683Y823890D01*
X123070Y827379D01*
X120714Y831046D01*
X118625Y834872D01*
X116814Y838837D01*
X115291Y842921D01*
X114063Y847104D01*
X113136Y851363D01*
X112516Y855677D01*
X112205Y860025D01*
X112205Y864384D01*
X112516Y868732D01*
X113136Y873047D01*
X114063Y877306D01*
X115291Y881488D01*
X116814Y885572D01*
X118625Y889537D01*
X120714Y893363D01*
X123070Y897030D01*
X125683Y900520D01*
X128537Y903814D01*
X131619Y906896D01*
X134914Y909750D01*
X138403Y912363D01*
X142070Y914719D01*
X145896Y916808D01*
X149861Y918619D01*
X153945Y920142D01*
X158127Y921370D01*
X162386Y922297D01*
X166701Y922917D01*
X171049Y923228D01*
X175408Y923228D01*
X179756Y922917D01*
X184070Y922297D01*
X188329Y921370D01*
X192512Y920142D01*
X196596Y918619D01*
X200561Y916808D01*
X204387Y914719D01*
X208054Y912363D01*
X211543Y909750D01*
X214837Y906896D01*
X217920Y903814D01*
X220774Y900520D01*
X223386Y897030D01*
X225743Y893363D01*
X227832Y889537D01*
X229643Y885572D01*
X231166Y881488D01*
X232394Y877306D01*
X233321Y873047D01*
X233941Y868732D01*
X234252Y864384D01*
X234252Y860025D01*
X1655512Y1986009D02*
X1655201Y1981662D01*
X1654580Y1977347D01*
X1653654Y1973088D01*
X1652426Y1968906D01*
X1650903Y1964821D01*
X1649092Y1960856D01*
X1647003Y1957031D01*
X1644646Y1953364D01*
X1642034Y1949874D01*
X1639180Y1946580D01*
X1636097Y1943498D01*
X1632803Y1940643D01*
X1629313Y1938031D01*
X1625647Y1935674D01*
X1621821Y1933585D01*
X1617856Y1931775D01*
X1613772Y1930251D01*
X1609589Y1929023D01*
X1605330Y1928097D01*
X1601016Y1927476D01*
X1596668Y1927165D01*
X1592309Y1927165D01*
X1587961Y1927476D01*
X1583646Y1928097D01*
X1579387Y1929023D01*
X1575205Y1930251D01*
X1571121Y1931775D01*
X1567156Y1933585D01*
X1563330Y1935674D01*
X1559663Y1938031D01*
X1556173Y1940643D01*
X1552879Y1943498D01*
X1549797Y1946580D01*
X1546942Y1949874D01*
X1544330Y1953364D01*
X1541974Y1957031D01*
X1539884Y1960856D01*
X1538074Y1964821D01*
X1536550Y1968906D01*
X1535322Y1973088D01*
X1534396Y1977347D01*
X1533776Y1981662D01*
X1533465Y1986009D01*
X1533465Y1990368D01*
X1533776Y1994716D01*
X1534396Y1999031D01*
X1535322Y2003290D01*
X1536550Y2007472D01*
X1538074Y2011557D01*
X1539884Y2015522D01*
X1541974Y2019347D01*
X1544330Y2023014D01*
X1546942Y2026504D01*
X1549797Y2029798D01*
X1552879Y2032880D01*
X1556173Y2035735D01*
X1559663Y2038347D01*
X1563330Y2040704D01*
X1567156Y2042793D01*
X1571121Y2044603D01*
X1575205Y2046127D01*
X1579387Y2047355D01*
X1583646Y2048281D01*
X1587961Y2048902D01*
X1592309Y2049213D01*
X1596668Y2049213D01*
X1601016Y2048902D01*
X1605330Y2048281D01*
X1609589Y2047355D01*
X1613772Y2046127D01*
X1617856Y2044603D01*
X1621821Y2042793D01*
X1625647Y2040704D01*
X1629313Y2038347D01*
X1632803Y2035735D01*
X1636097Y2032880D01*
X1639180Y2029798D01*
X1642034Y2026504D01*
X1644646Y2023014D01*
X1647003Y2019347D01*
X1649092Y2015522D01*
X1650903Y2011557D01*
X1652426Y2007472D01*
X1653654Y2003290D01*
X1654580Y1999031D01*
X1655201Y1994716D01*
X1655512Y1990368D01*
X1655512Y1986009D01*
X238189Y1863962D02*
X237878Y1859614D01*
X237258Y1855300D01*
X236331Y1851041D01*
X235103Y1846858D01*
X233580Y1842774D01*
X231769Y1838809D01*
X229680Y1834983D01*
X227323Y1831316D01*
X224711Y1827827D01*
X221857Y1824533D01*
X218774Y1821450D01*
X215480Y1818596D01*
X211991Y1815984D01*
X208324Y1813627D01*
X204498Y1811538D01*
X200533Y1809727D01*
X196449Y1808204D01*
X192266Y1806976D01*
X188007Y1806049D01*
X183693Y1805429D01*
X179345Y1805118D01*
X174986Y1805118D01*
X170638Y1805429D01*
X166323Y1806049D01*
X162064Y1806976D01*
X157882Y1808204D01*
X153798Y1809727D01*
X149833Y1811538D01*
X146007Y1813627D01*
X142340Y1815984D01*
X138851Y1818596D01*
X135556Y1821450D01*
X132474Y1824533D01*
X129620Y1827827D01*
X127007Y1831316D01*
X124651Y1834983D01*
X122562Y1838809D01*
X120751Y1842774D01*
X119228Y1846858D01*
X118000Y1851041D01*
X117073Y1855300D01*
X116453Y1859614D01*
X116142Y1863962D01*
X116142Y1868321D01*
X116453Y1872669D01*
X117073Y1876984D01*
X118000Y1881243D01*
X119228Y1885425D01*
X120751Y1889509D01*
X122562Y1893474D01*
X124651Y1897300D01*
X127007Y1900967D01*
X129620Y1904457D01*
X132474Y1907751D01*
X135556Y1910833D01*
X138851Y1913688D01*
X142340Y1916300D01*
X146007Y1918656D01*
X149833Y1920745D01*
X153798Y1922556D01*
X157882Y1924079D01*
X162064Y1925307D01*
X166323Y1926234D01*
X170638Y1926854D01*
X174986Y1927165D01*
X179345Y1927165D01*
X183693Y1926854D01*
X188007Y1926234D01*
X192266Y1925307D01*
X196449Y1924079D01*
X200533Y1922556D01*
X204498Y1920745D01*
X208324Y1918656D01*
X211991Y1916300D01*
X215480Y1913688D01*
X218774Y1910833D01*
X221857Y1907751D01*
X224711Y1904457D01*
X227323Y1900967D01*
X229680Y1897300D01*
X231769Y1893474D01*
X233580Y1889509D01*
X235103Y1885425D01*
X236331Y1881243D01*
X237258Y1876984D01*
X237878Y1872669D01*
X238189Y1868321D01*
X238189Y1863962D01*
M02*
