M48
;GenerationSoftware,Autodesk,EAGLE,9.6.2*%
;CreationDate,2023-04-02T13:57:21Z*%
FMAT,2
ICI,OFF
INCH,TZ,00.0000
T5C0.0276
T4C0.0320
T3C0.0400
T2C0.1180
T1C0.1220
%
G90
M72
T1
X15866Y7402
X1732Y8622
X15945Y19882
X1772Y18661
T2
X11783Y4283
X14146Y4283
X12965Y6134
T3
X10020Y10181
X7460Y10181
X14606Y9000
X14606Y10000
X14606Y11000
X2811Y3685
X1906Y16512
X1906Y15512
X1906Y14512
X1906Y13512
X1906Y12512
X1906Y11512
X2811Y4685
X2811Y5685
X16220Y9004
X16220Y10004
X16220Y11004
X16220Y12004
X16220Y13004
X16220Y14004
X16220Y15004
X16220Y16004
X16220Y17004
X16220Y18004
X1732Y24520
X1732Y23520
X1732Y22520
X1732Y21520
X1732Y20520
X16102Y21610
X16102Y22610
X16102Y23610
X16102Y24610
X10020Y8401
X7460Y8401
T4
X5244Y3264
X5244Y4264
X5268Y5665
X5268Y6665
X11496Y11591
X12496Y11591
X10992Y9972
X10992Y6972
X3035Y19811
X6035Y19811
X9744Y11602
X9744Y12602
X9744Y13602
X9744Y14602
X9744Y15602
X9744Y16602
X9744Y17602
X9744Y18602
X9744Y19602
X9744Y20602
X9744Y21602
X9744Y22602
X9744Y23602
X9744Y24602
X6744Y24602
X6744Y23602
X6744Y22602
X6744Y21602
X6744Y20602
X6744Y19602
X6744Y18602
X6744Y17602
X6744Y16602
X6744Y12602
X4028Y10236
X5028Y10236
X6264Y8189
X3264Y8189
X6744Y15602
X14358Y18504
X13358Y18504
X14398Y20787
X13398Y20787
X6744Y11602
X5894Y17992
X4894Y17992
X6744Y14602
X6744Y13602
T5
X11732Y20685
X11732Y18685
M30